# xmcd CD database file
#
# Track frame offsets:
#	150
#	17595
#	38019
#	55531
#	73072
#	90558
#	108183
#	126308
#	139398
#	157036
#	175408
#	191061
#	206970
#
# Disc length: 3021 seconds
#
# Revision: 8
# Processed by: cddbd v1.5.2PL0 Copyright (c) Steve Scherf et al.
# Submitted via: CDex 1.51
#
DISCID=ba0bcb0d
DTITLE=Lonestar - Let's Be Us Again
DYEAR=2004
DGENRE=Country
TTITLE0=County Fair
TTITLE1=Class Reunion (That Used To Be Us)
TTITLE2=Let's Be Us Again
TTITLE3=That Gets Me
TTITLE4=Women Rule The World
TTITLE5=What I Miss The Most
TTITLE6=Let Them Be Little
TTITLE7=T.G.I.F.
TTITLE8=Summertime
TTITLE9=Now
TTITLE10=Mr. Mom
TTITLE11=From There To Here
TTITLE12=Somebody's Someone (Dedicated To The Fallen Heroes)
EXTD=YEAR: 2004
EXTT0=
EXTT1=
EXTT2=
EXTT3=
EXTT4=
EXTT5=
EXTT6=
EXTT7=
EXTT8=
EXTT9=
EXTT10=
EXTT11=feat. Randy Owen
EXTT12=
PLAYORDER=
